<?xml version="1.0" ?><!DOCTYPE svg  PUBLIC '-//W3C//DTD SVG 1.1//EN'  'http://www.w3.org/Graphics/SVG/1.1/DTD/svg11.dtd'><svg enable-background="new 0 0 100 100" height="100px" id="Layer_1" version="1.1" viewBox="0 0 100 100" width="100px" xml:space="preserve" xmlns="http://www.w3.org/2000/svg" xmlns:xlink="http://www.w3.org/1999/xlink"><g><path d="M49.739,95.985c25.352,0,45.978-20.625,45.978-45.978S75.091,4.03,49.739,4.03   c-25.353,0-45.978,20.625-45.978,45.978S24.387,95.985,49.739,95.985z M49.739,6.03c24.25,0,43.978,19.728,43.978,43.978   S73.989,93.985,49.739,93.985S5.761,74.257,5.761,50.008S25.49,6.03,49.739,6.03z" fill="#def0ff"/><path d="M56.647,39.176h14.696c0.552,0,1-0.448,1-1V34.76c0-0.552-0.448-1-1-1H56.647c-0.552,0-1,0.448-1,1v3.416   C55.647,38.728,56.095,39.176,56.647,39.176z M57.647,35.76h12.696v1.416H57.647V35.76z" fill="#def0ff"/><path d="M22.379,67.639h15.239c1.777,0,3.454-0.162,4.983-0.48c1.612-0.335,3.034-0.969,4.219-1.877   c1.058-0.794,1.95-1.785,2.64-2.927c1.102-1.745,1.66-3.739,1.66-5.927c0-0.038-0.006-0.071-0.006-0.109   c0.329,3.952,1.703,6.932,4.106,8.868c2.715,2.19,5.89,3.301,9.438,3.301c4.304,0,7.717-1.336,10.137-3.962   c1.584-1.683,2.489-3.395,2.689-5.088c0.034-0.284-0.056-0.568-0.246-0.782c-0.19-0.213-0.462-0.335-0.748-0.335h-6.676   c-0.37,0-0.709,0.204-0.883,0.53c-0.327,0.614-0.695,1.09-1.099,1.417c-0.752,0.618-1.732,0.918-2.995,0.918   c-1.208,0-2.242-0.265-3.082-0.793c-1.123-0.689-1.796-1.814-2.042-3.423h17.119c0.547,0,0.992-0.439,1-0.985   c0.032-2.252-0.042-3.93-0.229-5.13c-0.325-2.102-1.051-3.981-2.15-5.577c-1.235-1.833-2.83-3.197-4.742-4.054   c-1.863-0.835-3.98-1.259-6.291-1.259c-3.925,0-7.173,1.266-9.652,3.763c-2.479,2.494-3.737,6.084-3.737,10.67   c0,0.496,0.024,0.969,0.053,1.439c-0.086-1.875-0.556-3.532-1.442-4.906c-0.67-1.039-1.56-1.893-2.657-2.554   c0.499-0.371,0.919-0.764,1.259-1.174c1.193-1.434,1.798-3.324,1.798-5.619c0-2.209-0.586-4.143-1.747-5.754   c-1.907-2.596-5.122-3.945-9.571-4.011H22.379c-0.552,0-1,0.448-1,1v33.822C21.379,67.191,21.827,67.639,22.379,67.639z    M56.187,45.136c2.12-2.135,4.813-3.173,8.234-3.173c2.027,0,3.868,0.365,5.473,1.084c1.566,0.702,2.879,1.828,3.908,3.354   c0.933,1.354,1.548,2.955,1.827,4.757c0.14,0.899,0.211,2.178,0.212,3.81H58.617c-0.272,0-0.533,0.111-0.721,0.308   c-0.188,0.196-0.289,0.461-0.278,0.733c0.116,2.852,1.156,4.9,3.083,6.082c1.155,0.726,2.547,1.094,4.137,1.094   c1.721,0,3.156-0.462,4.26-1.369c0.477-0.387,0.91-0.889,1.293-1.498h4.83c-0.343,0.919-0.975,1.871-1.89,2.842   c-2.062,2.238-4.899,3.326-8.674,3.326c-3.123,0-5.799-0.935-8.182-2.858c-2.286-1.841-3.444-4.947-3.444-9.233   C53.032,50.358,54.093,47.242,56.187,45.136z M23.379,33.817h15.33c3.775,0.056,6.458,1.13,7.968,3.187   c0.918,1.274,1.365,2.772,1.365,4.578c0,1.815-0.449,3.275-1.337,4.342c-0.491,0.593-1.253,1.156-2.265,1.674   c-0.354,0.181-0.567,0.555-0.542,0.953c0.025,0.397,0.283,0.742,0.657,0.877c1.529,0.555,2.644,1.4,3.408,2.585   c0.769,1.192,1.159,2.677,1.159,4.414c0,1.804-0.455,3.439-1.362,4.875c-0.567,0.938-1.287,1.739-2.147,2.385   c-0.953,0.73-2.102,1.239-3.417,1.513c-1.395,0.291-2.935,0.438-4.575,0.438H23.379V33.817z" fill="#def0ff"/><path d="M43.985,55.946c0-2.146-0.947-3.714-2.738-4.535c-0.937-0.43-2.175-0.647-3.796-0.665h-8.325   c-0.552,0-1,0.448-1,1v9.018c0,0.552,0.448,1,1,1h8.211c1.638,0,2.901-0.228,3.869-0.7C42.474,60.436,43.985,59.039,43.985,55.946z    M40.323,59.269c-0.673,0.329-1.678,0.495-2.987,0.495h-7.211v-7.018h7.314c1.306,0.015,2.306,0.177,2.974,0.483   c1.072,0.491,1.572,1.354,1.572,2.717C41.985,58.187,41.034,58.917,40.323,59.269z" fill="#def0ff"/><path d="M29.125,47.148h8.22c1.65,0,3.029-0.331,4.098-0.983c0.845-0.516,1.853-1.598,1.853-3.825   c0-2.505-1.323-3.582-2.497-4.067c-1.14-0.386-2.592-0.581-4.317-0.581h-7.357c-0.552,0-1,0.448-1,1v7.457   C28.125,46.7,28.573,47.148,29.125,47.148z M30.125,39.691h6.357c1.506,0,2.743,0.16,3.612,0.452   c0.559,0.232,1.201,0.693,1.201,2.197c0,1.572-0.673,1.983-0.895,2.118c-0.75,0.458-1.779,0.69-3.056,0.69h-7.22V39.691z" fill="#def0ff"/><path d="M58.778,52.656h11.266c0.277,0,0.542-0.115,0.731-0.317s0.286-0.475,0.267-0.751   c-0.137-2.004-0.84-3.566-2.087-4.64c-1.222-1.057-2.747-1.592-4.531-1.592c-1.953,0-3.508,0.583-4.623,1.733   c-1.068,1.102-1.745,2.59-2.013,4.422c-0.042,0.288,0.043,0.579,0.233,0.799C58.212,52.529,58.488,52.656,58.778,52.656z    M61.238,48.48c0.734-0.757,1.776-1.125,3.186-1.125c1.309,0,2.363,0.361,3.224,1.106c0.622,0.535,1.033,1.258,1.247,2.194h-8.877   C60.281,49.774,60.69,49.046,61.238,48.48z" fill="#def0ff"/></g></svg>