<svg xmlns="http://www.w3.org/2000/svg" viewBox="0 0 360.47 456.67"><defs><style>.cls-1{fill:#074473;}.cls-2{fill:none;stroke:#074473;stroke-miterlimit:10;}</style></defs><g id="Layer_2" data-name="Layer 2"><g id="Layer_1-2" data-name="Layer 1"><path class="cls-1" d="M.47,98.5V0H104A111.44,111.44,0,0,0,.47,98.5Z"/><polygon class="cls-1" points="41.64 201.29 223.31 415 41.64 415 41.64 201.29"/><path class="cls-1" d="M360.47,0V415H277.35L113.8,222.62A111.44,111.44,0,0,0,118.34,0Z"/><path class="cls-1" d="M181.47,111.21A70.28,70.28,0,0,1,60.32,159.7l-.09-.1q-1.53-1.59-2.94-3.29a69.93,69.93,0,0,1-15.65-35,70.67,70.67,0,0,1-.73-10.14,68.89,68.89,0,0,1,.46-8,70.28,70.28,0,0,1,140.1,8Z"/><line class="cls-2" x1="0.5" y1="415" x2="0.5" y2="456.17"/><line class="cls-2" x1="41.64" y1="456.15" x2="0.5" y2="456.17"/></g></g></svg>